<?xml version="1.0" encoding="UTF-8" standalone="no"?>
<svg
   xmlns:dc="http://purl.org/dc/elements/1.1/"
   xmlns:cc="http://creativecommons.org/ns#"
   xmlns:rdf="http://www.w3.org/1999/02/22-rdf-syntax-ns#"
   xmlns:svg="http://www.w3.org/2000/svg"
   xmlns="http://www.w3.org/2000/svg"
   viewBox="0 0 682.66669 682.66669"
   height="682.66669"
   width="682.66669"
   xml:space="preserve"
   id="svg2"
   version="1.1"><metadata
     id="metadata8"><rdf:RDF><cc:Work
         rdf:about=""><dc:format>image/svg+xml</dc:format><dc:type
           rdf:resource="http://purl.org/dc/dcmitype/StillImage" /></cc:Work></rdf:RDF></metadata><defs
     id="defs6" /><g
     transform="matrix(1.3333333,0,0,-1.3333333,0,682.66667)"
     id="g10"><g
       transform="scale(0.1)"
       id="g12"><path
         id="path14"
         style="fill:#fabc18;fill-opacity:1;fill-rule:nonzero;stroke:none"
         d="m 4724.36,2004.03 c 47.05,0 85.32,-38.28 85.32,-85.32 0,-47.05 -38.28,-85.32 -85.32,-85.32 -47.04,0 -85.32,38.28 -85.32,85.32 -0.01,47.05 38.27,85.32 85.32,85.32 z M 1136.92,4824.34 c -33.27,33.27 -33.27,87.4 0,120.66 16.64,16.64 38.48,24.95 60.34,24.95 21.85,0 43.7,-8.32 60.33,-24.95 33.27,-33.27 33.27,-87.4 0,-120.67 v 0 c -33.26,-33.25 -87.39,-33.26 -120.67,0.01 z m 2064.37,-14.66 c 47.05,0 85.32,-38.28 85.32,-85.32 0,-47.04 -38.28,-85.32 -85.32,-85.32 -47.04,0 -85.32,38.28 -85.32,85.32 0,47.04 38.27,85.32 85.32,85.32 z m 1623.06,-826.61 c 16.12,16.12 37.54,24.99 60.33,24.99 22.79,0 44.21,-8.87 60.33,-24.99 16.12,-16.12 24.99,-37.54 24.99,-60.33 0,-22.79 -8.87,-44.21 -24.99,-60.33 -16.12,-16.12 -37.54,-24.99 -60.33,-24.99 -22.79,0 -44.21,8.87 -60.33,24.99 v 0 c -16.12,16.12 -24.99,37.54 -24.99,60.33 0,22.79 8.87,44.22 24.99,60.33 z M 5045,2635 H 3837.42 v 170.64 h 325.81 c 41.42,0 75,33.58 75,75 0,41.42 -33.58,75 -75,75 h -325.81 v 170.65 h 226.2 c 84.27,0 163.5,32.81 223.08,92.4 l 493.26,493.26 c 32.14,-16.01 67.77,-24.53 104.73,-24.53 62.86,0 121.95,24.48 166.4,68.92 44.45,44.45 68.93,103.54 68.93,166.4 0,62.86 -24.48,121.95 -68.93,166.4 -44.44,44.45 -103.54,68.93 -166.4,68.93 -62.86,0 -121.95,-24.48 -166.4,-68.92 -44.45,-44.45 -68.93,-103.54 -68.93,-166.4 0,-36.96 8.52,-72.59 24.53,-104.73 l -493.26,-493.26 c -31.25,-31.25 -72.81,-48.47 -117.02,-48.47 h -226.2 v 165.48 c 0,218.16 -177.49,395.64 -395.64,395.64 h -165.48 v 663.95 c 93.09,31.39 160.32,119.46 160.32,223 0,129.76 -105.57,235.32 -235.32,235.32 -129.75,0 -235.32,-105.57 -235.32,-235.32 0,-103.54 67.24,-191.6 160.32,-223 v -663.94 h -170.64 v 325.81 c 0,41.42 -33.58,75 -75,75 -41.42,0 -75,-33.58 -75,-75 V 3837.42 H 2635 V 5045 c 0,41.42 -33.58,75 -75,75 -41.42,0 -75,-33.58 -75,-75 V 3837.42 h -170.64 v 325.81 c 0,41.42 -33.58,75 -75,75 -41.42,0 -75,-33.58 -75,-75 v -325.81 h -170.64 v 226.19 c 0,84.27 -32.82,163.5 -92.41,223.08 l -493.43,493.43 c 43.59,88.01 28.98,197.75 -44.21,270.95 -91.76,91.75 -241.05,91.74 -332.8,0 -91.749,-91.75 -91.749,-241.04 0,-332.8 45.88,-45.87 106.14,-68.81 166.4,-68.81 35.88,0 71.7,8.33 104.55,24.6 l 493.43,-493.44 c 31.26,-31.25 48.47,-72.81 48.47,-117.01 v -226.19 h -165.48 c -33.45,0 -66.72,-4.2 -98.88,-12.47 -40.11,-10.32 -64.26,-51.21 -53.94,-91.33 10.32,-40.12 51.22,-64.27 91.33,-53.94 19.95,5.13 40.63,7.74 61.48,7.74 h 1763.54 c 135.45,0 245.64,-110.2 245.64,-245.64 V 1678.23 c 0,-20.83 -2.6,-41.5 -7.72,-61.43 -10.31,-40.12 13.85,-81 53.96,-91.31 6.26,-1.61 12.54,-2.38 18.73,-2.38 33.41,0 63.88,22.49 72.58,56.35 8.26,32.12 12.45,65.36 12.45,98.78 v 165.48 h 663.94 c 31.39,-93.08 119.46,-160.32 223,-160.32 129.76,0 235.32,105.56 235.32,235.32 0,129.76 -105.57,235.32 -235.32,235.32 -103.54,0 -191.6,-67.24 -223,-160.32 h -663.94 v 170.65 h 325.81 c 41.42,0 75,33.58 75,75 0,41.42 -33.58,75 -75,75 H 3837.41 V 2485 H 5045 c 41.42,0 75,33.58 75,75 0,41.42 -33.58,75 -75,75" /><path
         id="path16"
         style="fill:#fabc18;fill-opacity:1;fill-rule:nonzero;stroke:none"
         d="m 3983.08,174.988 c -33.27,-33.269 -87.4,-33.258 -120.67,0 -33.27,33.274 -33.27,87.403 0,120.66 16.64,16.633 38.49,24.954 60.34,24.954 21.85,0 43.7,-8.321 60.33,-24.954 33.26,-33.257 33.26,-87.386 0,-120.66 z M 1918.71,310.32 c -47.05,0 -85.32,38.282 -85.32,85.321 0,47.039 38.28,85.32 85.32,85.32 47.04,0 85.32,-38.281 85.32,-85.32 0,-47.039 -38.27,-85.321 -85.32,-85.321 z M 295.648,1136.93 c -16.117,-16.12 -37.539,-24.99 -60.328,-24.99 -22.793,0 -44.211,8.87 -60.332,24.99 -16.117,16.12 -24.988,37.54 -24.988,60.33 0,22.79 8.871,44.2 24.988,60.33 16.121,16.12 37.539,24.99 60.332,24.99 22.789,0 44.211,-8.87 60.328,-24.99 v 0 c 16.122,-16.13 24.993,-37.54 24.993,-60.33 0,-22.79 -8.871,-44.22 -24.993,-60.33 z m 99.993,1979.04 c -47.051,0 -85.321,38.28 -85.321,85.32 0,47.05 38.278,85.32 85.321,85.32 47.039,0 85.32,-38.28 85.32,-85.32 0.012,-47.05 -38.27,-85.32 -85.32,-85.32 z M 3818.19,445.941 3324.76,939.371 c -31.26,31.25 -48.47,72.819 -48.47,117.019 v 226.19 h 165.48 c 33.45,0 66.71,4.2 98.86,12.47 40.11,10.32 64.26,51.21 53.94,91.33 -10.32,40.11 -51.19,64.26 -91.33,53.94 -19.94,-5.13 -40.62,-7.73 -61.47,-7.73 H 1678.23 c -135.45,0 -245.64,110.2 -245.64,245.64 v 1763.54 c 0,20.85 2.6,41.53 7.73,61.46 10.33,40.11 -13.82,81 -53.93,91.33 -40.12,10.33 -81.01,-13.82 -91.33,-53.93 -8.28,-32.14 -12.47,-65.4 -12.47,-98.86 V 3276.29 H 618.637 c -31.387,93.08 -119.457,160.32 -222.996,160.32 -129.762,0 -235.321,-105.56 -235.321,-235.32 0,-129.76 105.571,-235.32 235.321,-235.32 103.539,0 191.601,67.24 222.996,160.32 H 1282.58 V 2955.64 H 956.77 c -41.418,0 -75,-33.58 -75,-75 0,-41.42 33.582,-75 75,-75 h 325.81 V 2635 H 75 c -41.4219,0 -75,-33.58 -75,-75 0,-41.42 33.5781,-75 75,-75 H 1282.58 V 2314.36 H 956.77 c -41.418,0 -75,-33.58 -75,-75 0,-41.42 33.582,-75 75,-75 h 325.81 v -170.65 h -226.2 c -84.271,0 -163.497,-32.81 -223.079,-92.4 L 340.039,1408.05 c -32.141,16.01 -67.769,24.53 -104.73,24.53 -62.86,0 -121.95,-24.48 -166.3988,-68.92 C 24.4805,1319.21 0,1260.11 0,1197.26 c 0,-62.85 24.4805,-121.95 68.9297,-166.4 44.4373,-44.45 103.5433,-68.919 166.4023,-68.919 62.856,0 121.949,24.481 166.398,68.919 44.454,44.45 68.93,103.54 68.93,166.4 0,36.96 -8.519,72.59 -24.531,104.73 l 493.262,493.26 c 31.25,31.25 72.809,48.47 117.019,48.47 h 226.2 v -165.48 c 0,-218.16 177.49,-395.64 395.64,-395.64 h 165.48 V 618.66 c -93.08,-31.39 -160.32,-119.461 -160.32,-223 0,-129.762 105.57,-235.32 235.32,-235.32 129.75,0 235.32,105.57 235.32,235.32 0,103.539 -67.24,191.602 -160.32,223 v 663.94 h 170.64 V 956.789 c 0,-41.418 33.58,-75 75,-75 41.42,0 75,33.582 75,75 V 1282.6 H 2485 V 75 c 0,-41.418 33.58,-75 75,-75 41.42,0 75,33.582 75,75 v 1207.58 h 170.64 V 956.77 c 0,-41.418 33.58,-75 75,-75 41.42,0 75,33.582 75,75 v 325.81 h 170.64 v -226.19 c 0,-84.269 32.82,-163.499 92.41,-223.081 l 493.43,-493.43 c -43.59,-88.008 -28.98,-197.75 44.22,-270.9493 45.87,-45.8789 106.14,-68.808606 166.4,-68.808606 60.26,0 120.53,22.929706 166.4,68.808606 91.75,91.7503 91.75,241.0393 0,332.7893 -73.19,73.203 -182.94,87.812 -270.95,44.222" /><path
         id="path18"
         style="fill:#fabc18;fill-opacity:1;fill-rule:nonzero;stroke:none"
         d="m 2152.32,2965.93 c 0.67,-0.02 1.34,-0.11 2,-0.11 17.12,0 34.33,5.83 48.42,17.76 28.75,24.34 34.52,65.64 15.22,96.71 -0.57,0.92 -1.09,1.86 -1.69,2.75 -0.31,0.45 -0.68,0.88 -1,1.33 -1.16,1.63 -2.35,3.23 -3.64,4.77 -0.04,0.05 -0.07,0.1 -0.11,0.14 -12.51,14.79 -27.44,39.27 -27.44,71.93 0,69.15 67.5,125.41 150.45,125.41 82.95,0 150.45,-56.26 150.45,-125.41 0,-41.42 33.58,-75 75,-75 41.42,0 75,33.58 75,75 0,69.15 67.5,125.41 150.45,125.41 82.95,0 150.45,-56.26 150.45,-125.41 0,-18.48 -4.84,-34.24 -11.25,-47.2 -42.66,-4.03 -83.92,-14.34 -123.09,-30.86 -38.17,-16.09 -56.06,-60.08 -39.97,-98.25 16.09,-38.16 60.08,-56.07 98.25,-39.97 32.42,13.67 67.3,20.7 103.68,20.98 0.72,-0.02 1.43,-0.09 2.15,-0.09 0.67,0 1.33,0.09 2,0.11 131.83,-0.86 238.77,-92.71 238.77,-205.52 0,-70.91 -43.14,-136.01 -115.4,-174.16 -24.61,-12.98 -40,-38.51 -40,-66.33 0,-27.82 15.39,-53.35 40,-66.33 72.26,-38.14 115.41,-103.25 115.41,-174.16 0,-52.87 -24.57,-103.3 -66.08,-141.01 -39.43,73.01 -109.12,131.13 -197.17,158.79 -39.5,12.41 -81.61,-9.56 -94.03,-49.07 -12.42,-39.52 9.56,-81.62 49.07,-94.03 76.46,-24.03 127.84,-86.42 127.84,-155.25 0,-91.25 -87.72,-165.49 -195.55,-165.49 -107.81,0 -195.54,74.24 -195.54,165.49 v 480.97 c 0,91.25 87.73,165.48 195.54,165.48 41.42,0 75,33.58 75,75 0,41.42 -33.58,75 -75,75 -72.54,0 -139.89,-20.56 -195.54,-55.57 v 95.8 c 0,41.42 -33.58,75 -75,75 -41.42,0 -75,-33.58 -75,-75 v -416.37 c -25.24,15.84 -52.92,28.95 -82.86,38.36 -39.54,12.42 -81.62,-9.56 -94.03,-49.06 -12.42,-39.52 9.55,-81.62 49.06,-94.04 76.46,-24.03 127.83,-86.42 127.83,-155.24 v -160.32 c 0,-91.25 -87.72,-165.49 -195.54,-165.49 -107.83,0 -195.55,74.24 -195.55,165.49 0,39.11 16.58,77.13 46.68,107.05 29.38,29.2 29.52,76.69 0.32,106.07 -29.2,29.38 -76.68,29.52 -106.06,0.31 -17.97,-17.86 -33.44,-37.38 -46.3,-58.13 -47.36,44.79 -75.01,103.74 -75.01,165.35 0,111.12 87.21,208.74 212.08,237.39 40.37,9.26 65.59,49.5 56.33,89.87 -9.26,40.38 -49.51,65.59 -89.87,56.33 -50.27,-11.53 -96.55,-30.78 -137.59,-56.05 -26.61,33.42 -40.94,72.56 -40.94,113.35 0.03,112.81 106.97,204.65 238.8,205.52 z m -208.4,-966.88 c 0,-0.06 0,-0.12 0,-0.18 0,-173.96 155.01,-315.49 345.55,-315.49 109.5,0 207.19,46.79 270.54,119.57 63.35,-72.78 161.04,-119.57 270.54,-119.57 183.37,0 333.76,131.1 344.82,296.02 111.37,64.62 181.08,177.81 181.08,300.03 0,89.9 -38.33,175.66 -104.3,240.48 65.96,64.82 104.3,150.59 104.3,240.48 0,160.4 -117.32,296.27 -277.93,340.42 4.75,19.61 7.39,39.78 7.39,60.39 0,151.86 -134.79,275.41 -300.45,275.41 -89.74,0 -170.35,-36.29 -225.45,-93.65 -55.1,57.36 -135.72,93.65 -225.45,93.65 -165.67,0 -300.45,-123.55 -300.45,-275.41 0,-20.61 2.64,-40.78 7.39,-60.39 -160.61,-44.14 -277.93,-180.01 -277.93,-340.42 0,-78.39 27.74,-152.35 78.99,-213.43 -50.11,-64.87 -78.99,-143.62 -78.99,-227.46 -0.02,-127.52 68.12,-246.59 180.35,-320.45" /></g></g></svg>